# xmcd
#
# Track frame offsets: 
#        225
#        22840
#        43010
#        71510
#        92450
#        111227
#        133527
#        155660
#        171880
#        191880
#        211312
#        231565
#        251700
#        271377
#
# Disc length: 3884 seconds
#
# Revision: 1
# Processed by: cddbd v1.5.1PL0 Copyright (c) Steve Scherf et al.
# Submitted via: ExactAudioCopy v0.95a5
#
DISCID=c90f290e
DTITLE=Tony Braxton - Good Vibrations
DYEAR=1997
DGENRE=R&B
TTITLE0=Another Sad Song
TTITLE1=Breathe Again
TTITLE2=Seven Whole Days
TTITLE3=Candlelight
TTITLE4=Spending My Time with You
TTITLE5=Love Shoulda Brought You Home
TTITLE6=You Mean the World to Me
TTITLE7=Come on over Here
TTITLE8=You're Making Me High
TTITLE9=There's No Me without You 
TTITLE10=Un-break My Heart 
TTITLE11=Find Me a Man 
TTITLE12=Let It Flow
TTITLE13=Why Should I Care
EXTD=Tony Braxton Good Vibrations
EXTT0=
EXTT1=
EXTT2=
EXTT3=
EXTT4=
EXTT5=
EXTT6=
EXTT7=
EXTT8=
EXTT9=
EXTT10=
EXTT11=
EXTT12=
EXTT13=
PLAYORDER=
